# xmcd
#
# Track frame offsets: 
#        150
#        14554
#        35865
#        52801
#        64611
#        77622
#        92620
#        102389
#        117006
#        128482
#        140520
#        145172
#        156747
#        166237
#        178169
#        187430
#        244134
#        260626
#        272745
#        273429
#        287568
#        304832
#        314831
#        324252
#        338377
#        346325
#
# Disc length: 4780 seconds
#
# Revision: 1
# Processed by: cddbd v1.5.2PL0 Copyright (c) Steve Scherf et al.
# Submitted via: ExactAudioCopy v1.3
#
DISCID=8712aa1a
DTITLE=Various Artist - Louisiana Hayride CD 02 (Live 1948 and 1951)
DYEAR=2017
DGENRE=Country
TTITLE0=Hank Williams - Mind Your Own Business
TTITLE1=Johnnie and Jack and Paul Warren - Listen To The Mockingbird
TTITLE2=Hank Williams - I'm A Long Gone Daddy
TTITLE3=The Bailes Brothers - He Will Set Your Fields On Fire
TTITLE4=Zeke Clements - Milk Cow Blues
TTITLE5=Curley Williams - Georgia Steel Guitar
TTITLE6=Harmie Smith - I'll Step Aside
TTITLE7=Red Sovine - Signed, Sealed, Delivered
TTITLE8=Cousin Emmy - I Wish I Was A Single Girl Again
TTITLE9=Johnnie and Jack (as Nimrod and his Duck) - Comedy Routine
TTITLE10=Paul Warren - Jolly Blacksmith
TTITLE11=Cousin Emmy - Shortnin' Bread
TTITLE12=Cousin Emmy's Kinfolks String Band - Mountain Dew
TTITLE13=Curley Williams' Georgia Peach Pickers - One Sided Affair
TTITLE14=Curley Williams' Georgia Peach Pickers - China Boy
TTITLE15=Horace Logan and the house band - Beat The Band (audience gam
TTITLE15=e)
TTITLE16=Brother Homer (Bailes Brothers) - Sweeter Than The Flowers
TTITLE17=The Bailes Brothers - You Go To Your Church And I'll Go To Mi
TTITLE17=ne
TTITLE18=KWKH Station Identification
TTITLE19=Slim Whitman - Whippoorwill Yodel
TTITLE20=Oklahoma Wranglers - Somebody's Been Beating My Time
TTITLE21=Oklahoma Wranglers - Wrangler Boogie
TTITLE22=T. Texas Tyler - Irma
TTITLE23=Webb Pierce - Wondering
TTITLE24=Lucky Bob Davis - Water Baby Blues
TTITLE25=Faron Young - The Good Lord Must Have Sent You
EXTD=
EXTT0=
EXTT1=
EXTT2=
EXTT3=
EXTT4=
EXTT5=
EXTT6=
EXTT7=
EXTT8=
EXTT9=
EXTT10=
EXTT11=
EXTT12=
EXTT13=
EXTT14=
EXTT15=
EXTT16=
EXTT17=
EXTT18=
EXTT19=
EXTT20=
EXTT21=
EXTT22=
EXTT23=
EXTT24=
EXTT25=
PLAYORDER=
